<?xml version="1.0" encoding="UTF-8" standalone="no"?>
<!-- Created with Inkscape (http://www.inkscape.org/) -->

<svg
   xmlns:dc="http://purl.org/dc/elements/1.1/"
   xmlns:cc="http://creativecommons.org/ns#"
   xmlns:rdf="http://www.w3.org/1999/02/22-rdf-syntax-ns#"
   xmlns:svg="http://www.w3.org/2000/svg"
   xmlns="http://www.w3.org/2000/svg"
   xmlns:sodipodi="http://sodipodi.sourceforge.net/DTD/sodipodi-0.dtd"
   xmlns:inkscape="http://www.inkscape.org/namespaces/inkscape"
   width="100"
   height="100"
   viewBox="0 0 100 100"
   id="svg2"
   version="1.1"
   inkscape:version="0.91 r"
   sodipodi:docname="figures.svg">
  <defs
     id="defs4" />
  <sodipodi:namedview
     id="base"
     pagecolor="#ffffff"
     bordercolor="#666666"
     borderopacity="1.0"
     inkscape:pageopacity="0.0"
     inkscape:pageshadow="2"
     inkscape:zoom="5.01"
     inkscape:cx="93.72175"
     inkscape:cy="43.82821"
     inkscape:document-units="px"
     inkscape:current-layer="layer1"
     showgrid="false"
     units="px"
     inkscape:window-width="2558"
     inkscape:window-height="1548"
     inkscape:window-x="0"
     inkscape:window-y="0"
     inkscape:window-maximized="0" />
  <metadata
     id="metadata7">
    <rdf:RDF>
      <cc:Work
         rdf:about="">
        <dc:format>image/svg+xml</dc:format>
        <dc:type
           rdf:resource="http://purl.org/dc/dcmitype/StillImage" />
        <dc:title />
      </cc:Work>
    </rdf:RDF>
  </metadata>
  <g
     inkscape:label="Layer 1"
     inkscape:groupmode="layer"
     id="layer1">
    <path
       style="opacity:1;fill:none;fill-opacity:1;fill-rule:nonzero;stroke:#000000;stroke-width:1;stroke-miterlimit:3.70000005;stroke-dasharray:none;stroke-opacity:1"
       d="M 100,50 L 98.984178,60.076744 L 96.070752,69.462256 L 91.460785,77.955475 L 85.355339,85.355339 L 77.955476,91.460785 L 69.462256,96.070752 L 60.076744,98.984178 L 50,100 L 39.923256,98.984178 L 30.537744,96.070752 L 22.044525,91.460785 L 14.644661,85.355339 L 8.5392148,77.955476 L 3.9292479,69.462256 L 1.0158224,60.076744 L 0,50 L 1.0158223,39.923256 L 3.9292479,30.537744 L 8.539215,22.044525 L 14.644661,14.644661 L 22.044525,8.5392148 L 30.537744,3.9292479 L 39.923256,1.0158224 L 50,0 L 60.076744,1.0158223 L 69.462256,3.9292479 L 77.955475,8.539215 L 85.355339,14.644661 L 91.460785,22.044524 L 96.070752,30.537744 L 98.984178,39.923256 Z"
       id="path4138"
       inkscape:connector-curvature="0"
       sodipodi:nodetypes="ccccccccccccccccccccccccccccccccc" />
    <path
       style="opacity:1;fill:none;fill-opacity:1;fill-rule:nonzero;stroke:#000000;stroke-width:1;stroke-miterlimit:3.70000005;stroke-dasharray:none;stroke-opacity:1"
       d="M 48.841797,0.24804688 L 45.699219,7.8413087 L 42.55664,15.43457 L 39.414062,23.027832 L 36.271484,30.621094 L 27.858886,31.939453 L 19.446289,33.257812 L 11.033691,34.576172 L 2.6210938,35.894531 L 8.8715821,41.22998 L 15.12207,46.565429 L 21.372559,51.900879 L 27.623047,57.236328 L 26.277344,65.644043 L 24.93164,74.051758 L 23.585937,82.459473 L 22.240234,90.867188 L 29.246093,86.57129 L 36.251953,82.275391 L 43.257812,77.979492 L 50.263672,73.683594 L 57.844238,77.562012 L 65.424805,81.44043 L 73.005371,85.318848 L 80.585938,89.197266 L 78.66504,81.207031 L 76.744141,73.216797 L 74.823242,65.226562 L 72.902344,57.236328 L 78.933106,51.225098 L 84.963867,45.213867 L 90.994629,39.202636 L 97.025391,33.191406 L 88.833008,32.548828 L 80.640625,31.90625 L 72.448242,31.263672 L 64.255859,30.621094 L 60.402343,23.027832 L 56.548828,15.43457 L 52.695312,7.8413087 Z"
       id="path4140"
       inkscape:connector-curvature="0"
       sodipodi:nodetypes="ccccccccccccccccccccccccccccccccccccccccc" />
    <path
       style="opacity:1;fill:none;fill-opacity:1;fill-rule:nonzero;stroke:#000000;stroke-width:1.35144329;stroke-miterlimit:3.70000005;stroke-dasharray:none;stroke-opacity:1"
       d="M 2.9042969,1.9472656 L 2.9042969,25.95166 L 2.9042969,49.956055 L 2.9042969,73.960449 L 2.9042969,97.964844 L 26.437012,97.964844 L 49.969726,97.964844 L 73.502441,97.964844 L 97.035156,97.964844 L 97.035156,73.960449 L 97.035156,49.956055 L 97.035156,25.95166 L 97.035156,1.9472656 L 73.502441,1.9472656 L 49.969726,1.9472656 L 26.437012,1.9472656 Z"
       id="path4148"
       inkscape:connector-curvature="0"
       sodipodi:nodetypes="ccccccccccccccccc" />
    <path
       style="opacity:1;fill:none;fill-opacity:1;fill-rule:nonzero;stroke:#000000;stroke-width:1;stroke-miterlimit:3.70000005;stroke-dasharray:none;stroke-opacity:1"
       d="M 48.912109,0.43554688 L 38.011718,19.316406 L 27.111328,38.197265 L 16.210937,57.078125 L 5.3105469,75.958984 L 27.111816,75.958984 L 48.913086,75.958984 L 70.714355,75.958984 L 92.515625,75.958984 L 81.614746,57.078125 L 70.713867,38.197265 L 59.812988,19.316406 Z"
       id="path4150"
       inkscape:connector-curvature="0"
       sodipodi:nodetypes="ccccccccccccc" />
    <path
       style="opacity:1;fill:none;fill-opacity:1;fill-rule:nonzero;stroke:#000000;stroke-width:2.0009203;stroke-miterlimit:3.70000005;stroke-dasharray:none;stroke-opacity:1"
       d="M 30.082506,13.045993 L 24.759299,13.581983 L 19.801166,15.120505 L 15.314339,17.555341 L 11.405054,20.780272 L 8.1795445,24.68908 L 5.744045,29.175546 L 4.2047896,34.133452 L 3.6680129,39.456579 L 4.3872259,44.812479 L 6.3707538,49.956345 L 9.355382,54.915138 L 13.077895,59.715817 L 17.275079,64.385342 L 21.683719,68.950673 L 26.040599,73.438771 L 30.082506,77.876595 L 32.655292,80.679063 L 35.727119,83.745531 L 39.038443,86.87946 L 42.329719,89.88431 L 45.341401,92.563541 L 47.813944,94.720613 L 49.487803,96.158986 L 50.103433,96.682118 L 50.718301,96.158888 L 52.390099,94.720279 L 54.859622,92.562915 L 57.867665,89.88342 L 61.155021,86.878417 L 64.462486,83.74453 L 67.530852,80.678382 L 70.100913,77.876595 L 74.141407,73.437919 L 78.49726,68.949299 L 82.905197,64.383732 L 87.101944,59.714214 L 90.824223,54.913742 L 93.808759,49.955315 L 95.792276,44.811928 L 96.511499,39.456579 L 95.974828,34.133979 L 94.435863,29.176493 L 92.000801,24.690319 L 88.775839,20.781653 L 84.867173,17.556691 L 80.380999,15.121629 L 75.423514,13.582664 L 70.100913,13.045993 L 67.236028,13.203288 L 64.429656,13.665071 L 61.704224,14.421084 L 59.082157,15.460995 L 56.585883,16.774491 L 54.237827,18.351259 L 52.060416,20.180983 L 50.076076,22.253352 L 48.094676,20.183734 L 45.920678,18.356036 L 43.576411,16.780541 L 41.084202,15.467532 L 38.466379,14.42729 L 35.745271,13.670098 L 32.943203,13.206238 Z"
       id="path4155"
       inkscape:connector-curvature="0"
       sodipodi:nodetypes="ccccccccccccccccccccccccccccccccccccccccccccccccccccccccccccccccc" />
    <path
       style="fill:none;stroke:#000000;stroke-opacity:1"
       d="M 49.258798,97.949571 L 47.900168,97.863676 L 47.232388,97.824581 L 47.144488,97.821691 L 47.056588,97.818801 L 47.064718,87.634354 L 47.072848,77.449907 L 47.080978,67.265464 L 47.089108,57.081022 L 47.164438,57.016891 L 47.239768,56.952761 L 47.861158,56.842589 L 50.879738,56.824506 L 54.310678,56.775409 L 55.446988,56.447602 L 56.497498,55.539214 L 57.157018,54.230507 L 57.228218,53.967575 L 57.299418,53.704643 L 57.307718,40.814249 L 57.316018,27.923855 L 57.345278,7.3617526 L 57.411748,2.1432027 L 57.786288,2.192552 L 58.575708,2.3110077 L 65.072508,3.8605364 L 71.220758,6.4020639 L 78.087788,10.67961 L 84.197798,16.275549 L 88.405528,21.442839 L 91.851718,27.283886 L 95.403498,36.388515 L 97.100298,46.19014 L 97.181108,49.796101 L 97.100268,53.402723 L 96.427368,58.731373 L 95.242368,63.802975 L 92.060768,71.937778 L 87.494018,79.435104 L 80.178598,87.288897 L 71.428478,93.188261 L 64.890518,95.894103 L 58.057798,97.547331 L 54.339688,97.87043 L 51.113728,98.077991 L 50.567068,98.036473 Z M 58.277118,74.538754 L 60.440578,73.184525 L 61.648628,70.868512 L 61.754948,69.543979 L 61.617108,68.216817 L 60.679088,66.257463 L 59.082988,64.96197 L 58.191798,64.628539 L 57.203698,64.494229 L 54.522388,65.057382 L 52.582758,67.01305 L 51.924148,69.390558 L 52.400598,71.819968 L 53.619648,73.445585 L 55.312258,74.468592 L 56.798338,74.709978 Z M 70.885378,74.668986 L 71.326298,74.574195 L 71.768228,74.440232 L 73.790678,72.926659 L 74.915728,70.447075 L 74.537698,67.471639 L 72.626038,65.156158 L 70.105018,64.476046 L 67.552188,65.155998 L 67.118408,65.500519 L 66.583178,66.01619 L 66.053388,66.625506 L 65.737878,67.156945 L 65.364418,68.224148 L 65.277078,69.605873 L 65.303938,70.607949 L 65.461428,71.273479 L 65.941198,72.328834 L 66.692398,73.286444 L 68.602278,74.501755 Z M 84.706678,74.536145 L 86.717078,73.310989 L 87.994348,71.272114 L 88.031958,68.087023 L 86.278548,65.455413 L 84.038198,64.527639 L 81.561288,64.787129 L 79.190558,66.797066 L 78.411268,69.941742 L 79.373468,72.641489 L 81.552678,74.400833 L 83.114448,74.71184 Z M 40.611948,97.435721 L 40.105618,97.328387 L 39.112308,97.111531 L 28.745188,93.402745 L 19.457468,87.18667 L 15.296188,83.088253 L 11.515348,78.420802 L 8.1365775,72.937747 L 5.5830175,67.060916 L 3.2895275,58.540456 L 2.5790175,49.872194 L 3.2549275,41.378475 L 5.4623375,33.073303 L 8.4942975,26.105129 L 12.459558,19.990016 L 19.166078,12.743004 L 27.012778,7.2113079 L 32.654498,4.556237 L 38.601788,2.7898479 L 40.800928,2.3940419 L 44.496908,2.0092021 L 48.187858,1.7065342 L 50.582948,1.7176867 L 51.085488,1.7396007 L 51.588028,1.7615147 L 51.587558,14.042813 L 51.587088,26.324111 L 51.570218,46.011723 L 51.505488,51.054437 L 51.465148,51.138305 L 51.424818,51.222172 L 49.622988,51.239944 L 47.821148,51.257716 L 44.643918,51.308626 L 43.791568,51.443339 L 42.988218,51.867739 L 42.321238,52.506092 L 41.862398,53.232929 L 41.570098,54.101161 L 41.457988,57.305306 L 41.441538,76.057606 L 41.441538,86.770473 L 41.441538,97.483341 L 41.274018,97.478766 L 41.106508,97.474191 L 40.823028,97.459126 Z M 42.157508,42.873805 L 43.579408,42.221369 L 44.857358,41.107626 L 46.110218,38.690712 L 46.097278,35.918529 L 44.597848,33.206672 L 42.153908,31.694323 L 40.828338,31.600655 L 39.495198,31.698902 L 38.554278,32.053914 L 37.644578,32.621263 L 36.634468,33.683608 L 35.862748,34.961184 L 35.528728,35.943562 L 35.399488,37.067168 L 35.455768,38.358837 L 35.784098,39.51464 L 37.343678,41.690739 L 39.617928,42.900173 L 40.903138,42.998301 Z"
       id="path4149"
       inkscape:connector-curvature="0"
       sodipodi:nodetypes="cccccccccccccccccccccccccccccccccccccccccccccccccccccccccccccccccccccccccccccccccccccccccccccccccccccccccccccccccccccccccccccccccccccccccccccccccccccccccccccccccccccc" />
  </g>
</svg>
